<svg width="1500" height="1531" viewBox="0 0 1500 1531" fill="none" xmlns="http://www.w3.org/2000/svg">
<rect y="15" width="1500" height="1500" rx="200" fill="#080808"/>
<path d="M786.508 647.699C759.001 690.44 733.611 738.259 710.336 791.156C676.905 866.482 660.189 922.764 660.189 960.004C660.189 970.583 662.305 978.624 666.537 984.125C671.192 989.626 677.963 992.377 686.85 992.377C708.008 992.377 733.611 972.488 763.656 932.709C782.699 908.165 799.626 883.62 814.438 859.076C822.478 845.111 831.153 838.129 840.463 838.129C845.964 838.129 850.619 840.033 854.428 843.842C857.813 847.65 859.506 851.459 859.506 855.268C859.506 870.925 838.982 905.837 797.934 960.004C748.845 1025.17 703.988 1057.76 663.363 1057.76C641.781 1057.76 623.796 1047.81 609.408 1027.92C600.521 1015.23 596.078 997.243 596.078 973.969C596.078 922.764 610.889 863.096 640.512 794.965C647.706 778.038 667.595 737.201 700.18 672.455C688.754 675.417 680.079 676.898 674.154 676.898C665.268 676.898 657.439 674.783 650.668 670.551C641.358 664.626 636.703 657.221 636.703 648.334C636.703 637.755 642.839 629.291 655.111 622.943C658.497 621.251 674.154 618.5 702.084 614.691C712.24 612.999 727.051 608.979 746.518 602.631C761.329 575.971 785.45 539.789 818.881 494.086C837.501 468.695 850.408 452.191 857.602 444.574C867.758 433.995 876.645 428.705 884.262 428.705C889.763 428.705 895.264 431.667 900.766 437.592C905.844 443.093 908.383 448.594 908.383 454.096C908.383 465.098 896.534 486.892 872.836 519.477C857.178 540.635 845.541 557.774 837.924 570.893C884.896 558.197 918.539 551.85 938.852 551.85C962.126 551.85 973.764 561.583 973.764 581.049C973.764 590.782 969.743 597.976 961.703 602.631C957.471 605.17 946.469 607.286 928.695 608.979C921.501 608.555 889.551 616.596 832.846 633.1C817.188 637.755 801.742 642.621 786.508 647.699Z" fill="white"/>
</svg>
